<?xml version="1.0" standalone="no"?>
<!DOCTYPE svg PUBLIC "-//W3C//DTD SVG 20010904//EN"
 "http://www.w3.org/TR/2001/REC-SVG-20010904/DTD/svg10.dtd">
<svg version="1.0" xmlns="http://www.w3.org/2000/svg"
 width="542.000000pt" height="542.000000pt" viewBox="0 0 542.000000 542.000000"
 preserveAspectRatio="xMidYMid meet">
<metadata>
Created by potrace 1.11, written by Peter Selinger 2001-2013
</metadata>
<g transform="translate(0.000000,542.000000) scale(0.100000,-0.100000)"
fill="#000000" stroke="none">
<path d="M2538 3970 c-101 -90 -146 -226 -103 -310 38 -73 135 -110 231 -89
l59 14 -82 5 c-120 7 -174 53 -175 149 0 71 38 145 113 221 54 53 58 60 37 60
-15 0 -46 -20 -80 -50z"/>
<path d="M320 2968 c0 -5 6 -8 14 -8 10 0 16 -21 21 -74 9 -101 -1 -165 -29
-176 -15 -6 -2 -9 44 -9 54 0 61 2 43 11 -20 9 -23 19 -23 65 0 73 20 70 72
-12 39 -60 44 -65 77 -65 35 1 35 1 13 13 -12 7 -38 35 -57 61 l-34 49 29 27
c33 31 38 64 15 97 -13 19 -27 22 -100 25 -47 2 -85 0 -85 -4z m152 -32 c27
-39 -9 -96 -59 -96 -21 0 -23 4 -23 54 0 34 5 56 13 59 17 7 61 -4 69 -17z"/>
<path d="M675 2970 c-56 -3 -90 -8 -77 -12 21 -6 22 -11 22 -121 0 -108 -1
-114 -22 -125 -18 -8 -2 -11 80 -11 101 -1 103 -1 112 25 16 41 11 51 -11 22
-18 -25 -27 -28 -75 -28 l-55 0 3 57 c2 47 7 58 21 61 30 6 67 -7 67 -23 0 -8
3 -15 8 -15 4 0 7 20 7 45 0 47 -9 59 -18 24 -5 -17 -12 -20 -44 -17 -38 3
-38 3 -41 51 l-3 47 56 0 c48 0 58 -3 62 -20 9 -33 23 -22 16 13 -3 17 -6 32
-7 32 -1 0 -46 -2 -101 -5z"/>
<path d="M880 2971 c-40 -4 -49 -8 -32 -13 21 -6 22 -11 22 -106 0 -85 3 -103
20 -125 27 -34 76 -43 123 -23 48 19 57 45 57 158 0 81 2 90 20 95 37 10 21
18 -27 14 -35 -2 -42 -6 -30 -13 14 -7 17 -26 17 -103 0 -109 -14 -135 -72
-135 -62 1 -73 19 -76 131 -4 95 -3 101 17 106 12 3 21 9 21 14 0 5 -1 8 -2 7
-2 -1 -28 -4 -58 -7z"/>
<path d="M1250 2965 c0 -8 7 -15 15 -15 8 0 15 7 15 15 0 8 -7 15 -15 15 -8 0
-15 -7 -15 -15z"/>
<path d="M1703 2964 c-43 -22 -64 -56 -69 -117 -7 -67 17 -115 69 -140 45 -22
105 -16 139 15 21 18 21 19 3 13 -115 -39 -184 12 -173 127 4 40 11 57 32 75
46 40 136 21 136 -28 0 -10 5 -19 10 -19 6 0 10 16 10 35 0 29 -5 37 -26 45
-37 15 -95 12 -131 -6z"/>
<path d="M3530 2969 c0 -4 9 -9 20 -12 18 -5 20 -14 20 -96 0 -50 -2 -91 -4
-91 -2 0 -38 45 -81 100 -73 95 -78 100 -113 99 -32 0 -34 -1 -14 -9 21 -9 22
-14 22 -125 0 -111 -1 -116 -22 -125 -18 -7 -11 -9 31 -9 49 -1 53 0 36 13
-15 11 -20 30 -23 105 -3 53 -1 91 5 91 5 0 44 -47 87 -105 43 -58 82 -105 87
-105 5 0 9 56 9 125 0 105 2 125 17 133 12 7 5 11 -30 13 -26 2 -47 1 -47 -2z"/>
<path d="M4540 2965 c-19 -11 -21 -14 -7 -15 15 0 17 -12 17 -113 0 -75 -4
-117 -12 -125 -9 -9 -2 -12 33 -12 35 1 40 3 27 11 -12 7 -18 22 -18 47 l1 37
29 -35 c16 -19 28 -41 25 -47 -3 -10 17 -13 83 -13 64 1 82 3 70 11 -15 8 -18
25 -18 94 l0 84 -32 -12 c-23 -8 -28 -12 -15 -15 14 -3 17 -15 17 -72 0 -38
-5 -72 -11 -75 -20 -13 -54 6 -86 48 l-32 42 27 28 c15 16 36 33 47 37 16 7
12 9 -17 9 -21 1 -37 -2 -35 -7 2 -8 -38 -62 -47 -62 -3 0 -6 38 -6 85 0 47
-3 85 -7 85 -5 -1 -19 -7 -33 -15z"/>
<path d="M4740 2965 c0 -10 7 -15 18 -13 21 4 19 22 -2 26 -10 2 -16 -3 -16
-13z"/>
<path d="M3832 2898 c-13 -15 -19 -28 -13 -28 7 0 11 -30 11 -80 0 -88 7 -98
58 -85 l27 8 -25 6 c-23 6 -25 12 -28 78 -3 72 -3 72 25 76 l28 4 -27 2 c-20
1 -27 7 -30 24 l-3 24 -23 -29z"/>
<path d="M1241 2876 c-19 -11 -21 -14 -7 -19 24 -10 23 -132 -1 -146 -14 -8
-7 -10 32 -10 39 0 46 2 33 10 -15 8 -18 25 -18 94 0 47 -3 85 -7 85 -5 -1
-19 -7 -32 -14z"/>
<path d="M1346 2875 c-22 -9 -25 -13 -12 -18 24 -10 23 -132 -1 -146 -14 -8
-7 -10 32 -10 39 0 46 2 33 10 -14 8 -18 23 -18 69 0 50 4 61 23 75 21 15 23
14 40 -6 22 -28 23 -106 0 -131 -15 -17 -14 -18 26 -18 39 0 41 1 27 16 -12
11 -16 35 -16 85 0 64 -2 70 -25 81 -19 9 -29 8 -49 -5 -19 -13 -25 -14 -28
-3 -2 10 -9 10 -32 1z"/>
<path d="M1923 2866 c-24 -21 -28 -32 -28 -74 0 -56 20 -87 63 -95 38 -7 69 8
87 42 52 101 -40 197 -122 127z m81 -5 c26 -29 32 -95 12 -126 -39 -60 -109 5
-91 85 12 57 48 75 79 41z"/>
<path d="M2111 2876 c-17 -10 -20 -15 -10 -18 20 -7 19 -135 -1 -148 -11 -7
-2 -10 30 -10 35 1 41 3 28 11 -14 7 -18 23 -18 62 1 58 17 87 48 87 25 0 32
-18 32 -85 0 -41 -4 -56 -17 -64 -14 -8 -7 -10 32 -10 39 0 46 2 33 10 -14 8
-18 24 -18 79 0 91 -27 122 -76 85 -24 -18 -32 -19 -36 -1 -2 12 -7 13 -27 2z"/>
<path d="M2318 2879 c-11 -6 -18 -22 -18 -38 0 -22 9 -34 41 -55 30 -20 39
-33 37 -49 -4 -30 -32 -33 -57 -6 l-21 23 0 -26 c0 -46 75 -44 100 2 11 21 5
60 -9 60 -4 0 -22 13 -41 29 -32 27 -34 31 -19 46 17 18 49 11 49 -11 0 -8 5
-14 11 -14 6 0 9 10 7 23 -2 16 -10 23 -33 24 -16 2 -38 -2 -47 -8z"/>
<path d="M2664 2877 c-20 -11 -20 -14 -7 -26 19 -17 12 -129 -9 -142 -8 -6 4
-9 32 -9 35 1 41 3 28 11 -14 7 -18 23 -18 62 1 58 17 87 48 87 25 0 32 -18
32 -85 0 -41 -4 -56 -17 -64 -14 -8 -7 -10 31 -11 43 0 47 2 32 13 -14 10 -17
25 -14 71 3 66 23 90 56 70 25 -16 29 -109 6 -135 -17 -18 -16 -19 25 -19 39
0 41 1 27 16 -12 11 -16 35 -16 85 0 64 -2 70 -25 81 -19 9 -29 8 -50 -6 -23
-15 -27 -15 -41 -1 -20 19 -48 19 -68 0 -18 -19 -24 -19 -28 -1 -2 12 -7 12
-24 3z"/>
<path d="M2985 2865 c-20 -19 -25 -34 -25 -72 0 -81 39 -114 99 -86 40 20 40
35 1 21 -26 -8 -34 -7 -50 7 -11 10 -20 31 -20 47 0 27 2 28 50 28 49 0 50 1
50 30 0 52 -63 68 -105 25z m73 -13 c14 -21 13 -22 -27 -22 -44 0 -51 9 -25
35 20 19 33 16 52 -13z"/>
<path d="M3141 2876 c-19 -11 -21 -14 -7 -19 23 -9 23 -113 -1 -139 -15 -17
-14 -18 27 -18 41 0 42 1 27 18 -37 41 -9 150 34 137 13 -4 19 -2 19 9 0 21
-34 20 -51 0 -12 -15 -14 -15 -19 4 -4 18 -8 19 -29 8z"/>
<path d="M3692 2883 c-21 -8 -42 -59 -42 -101 0 -78 65 -110 121 -61 l24 20
-25 -7 c-14 -4 -30 -9 -37 -11 -18 -7 -53 34 -53 62 0 23 3 25 50 25 58 0 72
16 46 55 -16 24 -50 32 -84 18z m52 -19 c25 -25 19 -34 -24 -34 -44 0 -48 5
-23 32 20 22 27 22 47 2z"/>
<path d="M4235 2866 c-53 -53 -36 -150 30 -167 58 -16 105 30 105 104 0 76
-83 115 -135 63z m84 -12 c37 -47 19 -144 -26 -144 -33 0 -53 31 -53 83 0 80
40 111 79 61z"/>
<path d="M4840 2875 c-14 -8 -19 -14 -12 -15 8 0 12 -22 12 -74 0 -50 -4 -76
-12 -79 -7 -3 7 -6 32 -6 35 0 41 2 28 10 -13 7 -18 23 -18 60 0 62 13 89 44
89 29 0 36 -16 36 -85 0 -41 -4 -56 -17 -64 -14 -8 -7 -10 32 -10 39 0 46 2
33 10 -14 8 -18 24 -18 79 0 93 -22 117 -82 86 -22 -12 -27 -12 -30 -1 -2 11
-7 11 -28 0z"/>
<path d="M5067 2870 c-31 -24 -36 -64 -12 -90 14 -15 14 -18 0 -30 -18 -15
-20 -40 -3 -40 6 0 2 -10 -10 -23 -26 -28 -27 -31 -6 -51 9 -10 33 -16 58 -16
55 0 96 30 96 70 0 33 -14 40 -76 40 -32 0 -44 4 -44 15 0 10 10 15 30 15 44
0 74 34 67 76 -5 27 -2 34 10 34 29 0 9 7 -38 14 -37 6 -50 3 -72 -14z m63 -9
c19 -37 7 -91 -21 -91 -17 0 -39 33 -39 59 0 47 40 69 60 32z m33 -175 c10
-25 -17 -48 -57 -49 -42 -1 -60 17 -45 45 12 23 94 26 102 4z"/>
<path d="M2443 2869 c13 -8 17 -24 17 -77 0 -40 5 -73 12 -80 15 -15 65 -16
74 -1 5 8 8 8 14 0 5 -9 14 -9 34 0 22 10 24 14 11 21 -11 7 -15 26 -15 78 l0
70 -32 0 c-27 -1 -30 -2 -15 -11 13 -8 17 -23 17 -69 0 -50 -3 -61 -21 -70
-35 -19 -49 3 -49 81 l0 69 -32 0 c-27 -1 -30 -2 -15 -11z"/>
<path d="M3927 2874 c6 -3 26 -46 44 -95 18 -50 35 -86 39 -82 4 4 15 32 26
61 10 28 20 52 23 52 4 0 15 -28 25 -61 22 -70 24 -69 62 43 13 40 30 75 37
80 7 5 2 8 -16 8 -17 0 -26 -4 -22 -10 4 -6 -1 -34 -11 -63 l-17 -52 -19 40
c-10 22 -17 50 -14 63 3 19 -1 22 -31 22 -31 0 -33 -1 -19 -16 19 -19 19 -11
0 -69 l-17 -48 -15 28 c-8 15 -15 45 -16 66 -1 38 -2 39 -36 38 -19 0 -30 -3
-23 -5z"/>
<path d="M4412 2871 c-11 -7 -11 -9 2 -14 23 -9 22 -113 -1 -139 -15 -17 -14
-18 27 -18 41 0 42 1 27 18 -37 41 -9 150 34 137 13 -4 19 -2 19 9 0 21 -29
20 -52 -1 -17 -15 -18 -15 -18 0 0 18 -17 22 -38 8z"/>
<path d="M910 2433 c0 -5 0 -163 0 -352 1 -384 -1 -374 70 -426 61 -45 130
-59 280 -59 178 2 258 27 315 103 19 25 20 44 23 384 l3 357 -149 0 -150 0
-21 -50 c-12 -27 -24 -50 -26 -50 -2 0 -14 23 -26 50 l-21 50 -149 0 c-82 0
-149 -3 -149 -7z m300 -173 c22 -44 42 -80 45 -80 3 0 23 36 45 80 l40 80 85
0 c83 0 85 0 85 -24 0 -14 -4 -28 -10 -31 -5 -3 -10 -42 -10 -85 0 -43 5 -82
10 -85 6 -3 10 -20 10 -36 l0 -30 -77 3 c-70 3 -78 5 -81 24 -2 11 4 27 13 34
10 8 15 30 15 68 0 30 -3 52 -7 48 -5 -4 -28 -44 -53 -89 -62 -111 -73 -111
-129 -2 -24 47 -48 85 -53 85 -14 0 -9 -80 8 -111 25 -50 15 -59 -71 -59 -84
0 -99 11 -71 55 21 32 22 162 1 189 -30 40 -20 46 75 46 l90 0 40 -80z m-33
-296 c3 -8 1 -20 -6 -27 -6 -6 -11 -37 -11 -69 0 -69 11 -78 95 -78 84 0 95 9
95 78 0 32 -5 63 -11 69 -7 7 -9 19 -6 27 5 13 24 16 93 16 l86 0 -6 -32 c-4
-18 -10 -62 -14 -98 -10 -85 -22 -105 -79 -127 -67 -25 -248 -26 -315 0 -60
23 -78 51 -78 124 0 37 -6 67 -16 81 -29 42 -13 52 81 52 69 0 87 -3 92 -16z"/>
<path d="M1910 2404 c0 -9 11 -14 34 -14 41 0 66 -22 66 -58 0 -15 -9 -74 -20
-132 -11 -58 -31 -168 -45 -244 -13 -78 -30 -143 -37 -148 -7 -4 -23 -8 -35
-8 -12 0 -25 -4 -28 -10 -4 -6 32 -10 100 -10 68 0 104 4 100 10 -3 6 -15 10
-26 10 -11 0 -30 5 -41 11 -19 10 -20 17 -14 82 10 99 57 380 65 390 4 4 45
-107 92 -246 46 -140 88 -255 94 -256 11 -3 48 86 157 378 86 231 82 236 92
-111 6 -219 6 -227 -13 -237 -11 -6 -31 -11 -45 -11 -14 0 -26 -4 -26 -10 0
-6 50 -10 130 -10 80 0 130 4 130 10 0 6 -13 10 -29 10 -33 0 -61 22 -61 48
-1 9 -5 129 -10 267 -6 168 -6 253 1 262 6 6 26 13 45 15 19 2 33 8 32 13 -2
6 -41 10 -91 10 l-89 0 -73 -200 c-103 -285 -110 -301 -121 -284 -4 8 -43 119
-84 248 l-77 235 -86 2 c-70 2 -87 0 -87 -12z"/>
<path d="M2740 2396 c-28 -35 11 -93 48 -70 35 22 22 84 -18 84 -10 0 -23 -7
-30 -14z"/>
<path d="M2738 2166 c-32 -11 -58 -23 -58 -27 0 -3 11 -11 25 -17 l26 -12 -3
-152 -3 -153 -27 -3 c-16 -2 -28 -8 -28 -13 0 -5 43 -9 96 -9 61 0 93 4 89 10
-3 6 -15 10 -25 10 -28 0 -32 26 -28 218 2 95 1 171 -2 171 -3 -1 -31 -11 -62
-23z"/>
<path d="M2929 2122 c-10 -49 -3 -87 9 -52 3 8 18 27 33 42 24 24 35 28 88 28
34 0 61 -2 61 -4 0 -2 -31 -53 -68 -113 -82 -131 -132 -219 -132 -233 0 -7 50
-10 147 -8 l147 3 13 50 c20 76 11 86 -25 30 -22 -33 -42 -52 -60 -56 -45 -11
-142 -10 -142 1 0 6 48 87 106 181 58 93 105 172 103 174 -2 2 -64 5 -136 7
l-133 3 -11 -53z"/>
<path d="M3295 2122 c-8 -65 -3 -73 21 -34 9 17 28 35 41 41 29 13 123 15 123
2 0 -5 -33 -62 -74 -128 -40 -65 -85 -142 -100 -170 l-26 -53 148 0 149 0 16
58 c21 74 6 87 -28 24 -23 -42 -32 -51 -63 -56 -67 -11 -132 -7 -132 7 0 12
76 139 177 295 19 30 33 55 31 57 -2 2 -64 5 -140 7 l-136 3 -7 -53z"/>
<path d="M3773 2169 c-43 -13 -100 -73 -113 -118 -27 -97 0 -197 66 -247 34
-26 45 -29 113 -29 65 0 81 3 109 25 108 80 103 269 -9 352 -30 22 -119 32
-166 17z m124 -31 c48 -40 71 -196 39 -272 -33 -79 -111 -102 -166 -48 -26 26
-50 100 -50 152 0 58 24 126 57 159 29 29 38 33 69 28 20 -3 43 -12 51 -19z"/>
<path d="M4064 2159 c-3 -5 3 -12 13 -15 48 -15 48 -15 53 -166 5 -146 9 -162
49 -195 23 -20 101 -16 139 7 40 25 42 25 42 0 0 -23 -2 -23 69 -6 62 14 81
36 31 36 l-31 0 2 173 2 172 -74 0 c-76 0 -99 -16 -37 -25 l33 -5 3 -145 c3
-138 2 -146 -19 -162 -27 -22 -92 -23 -113 -2 -23 22 -26 43 -29 199 l-2 140
-63 2 c-34 0 -65 -3 -68 -8z"/>
<path d="M3350 1600 c0 -5 7 -10 15 -10 8 0 15 5 15 10 0 6 -7 10 -15 10 -8 0
-15 -4 -15 -10z"/>
<path d="M1864 1584 c12 -11 16 -35 16 -88 0 -79 11 -98 61 -111 20 -5 32 -1
51 17 13 13 17 17 8 11 -32 -25 -68 -15 -89 24 -15 29 -14 136 1 151 9 9 4 12
-26 12 -34 0 -36 -1 -22 -16z"/>
<path d="M2006 1592 c6 -4 13 -13 15 -20 3 -8 8 -5 17 8 11 18 10 20 -15 20
-16 0 -23 -4 -17 -8z"/>
<path d="M2247 1594 c-8 -8 1 -24 14 -24 5 0 9 7 9 15 0 15 -12 20 -23 9z"/>
<path d="M2777 1594 c-8 -8 1 -24 14 -24 5 0 9 7 9 15 0 15 -12 20 -23 9z"/>
<path d="M3530 1562 c11 -22 29 -70 41 -106 12 -37 25 -63 29 -59 11 12 24 60
14 50 -5 -5 -20 27 -35 70 -20 61 -30 79 -47 81 l-21 3 19 -39z"/>
<path d="M3663 1584 c-3 -9 0 -19 6 -24 9 -5 12 -32 9 -89 -3 -78 -2 -81 19
-81 20 0 21 3 13 26 -15 38 -13 171 3 177 6 3 -1 6 -16 6 -17 1 -30 -5 -34
-15z"/>
<path d="M3770 1585 c0 -8 5 -15 10 -15 6 0 10 7 10 15 0 8 -4 15 -10 15 -5 0
-10 -7 -10 -15z"/>
<path d="M4450 1585 c0 -8 5 -15 10 -15 6 0 10 7 10 15 0 8 -4 15 -10 15 -5 0
-10 -7 -10 -15z"/>
<path d="M3319 1580 c-22 -60 -27 -80 -17 -80 7 0 9 -21 6 -55 -4 -45 -2 -55
11 -55 13 0 15 10 13 55 -3 48 -1 55 15 55 17 1 17 2 1 13 -9 7 -18 29 -20 48
-2 19 -6 27 -9 19z"/>
<path d="M2844 1529 c-14 -17 -3 -124 13 -140 7 -7 20 -8 30 -4 16 6 16 8 -4
16 -19 7 -23 16 -23 54 0 38 3 45 20 45 11 0 20 5 20 10 0 6 -9 10 -19 10 -11
0 -21 5 -23 11 -2 7 -7 7 -14 -2z"/>
<path d="M2089 1518 c0 -1 -1 -31 -2 -66 -2 -49 1 -62 13 -62 12 0 15 13 14
62 0 37 -5 63 -12 66 -7 2 -12 2 -13 0z"/>
<path d="M2148 1508 c21 -11 23 -18 20 -65 -2 -42 0 -53 12 -53 12 0 14 11 10
62 -5 62 -6 63 -35 65 -29 3 -29 2 -7 -9z"/>
<path d="M2235 1511 c-3 -5 -1 -12 5 -16 14 -9 13 -78 -2 -93 -9 -9 -7 -12 13
-12 23 0 24 2 21 65 -3 46 -8 65 -17 65 -8 0 -16 -4 -20 -9z"/>
<path d="M2321 1468 c11 -29 22 -59 25 -67 3 -11 8 -11 16 -3 8 8 6 21 -7 47
-9 20 -15 45 -12 56 4 15 0 19 -18 19 l-23 0 19 -52z"/>
<path d="M2387 1500 c3 -12 6 -19 7 -18 1 2 8 11 15 21 12 15 11 17 -7 17 -15
0 -19 -5 -15 -20z"/>
<path d="M2446 1501 c-27 -30 -18 -91 16 -111 26 -14 29 -13 50 9 23 23 23 23
1 12 -12 -6 -24 -11 -27 -11 -12 0 -36 33 -36 51 0 16 7 19 40 19 43 0 45 2
30 31 -14 25 -30 25 -23 -1 4 -16 0 -20 -21 -20 -28 0 -33 9 -14 28 7 7 10 12
7 12 -3 0 -14 -9 -23 -19z"/>
<path d="M2565 1455 c0 -51 3 -65 15 -65 11 0 15 12 15 52 0 49 2 53 23 52 12
0 22 5 22 13 0 16 -22 17 -38 1 -9 -9 -12 -9 -12 0 0 7 -6 12 -12 12 -9 0 -13
-20 -13 -65z"/>
<path d="M2672 1508 c-21 -21 -13 -47 19 -64 23 -11 30 -21 26 -35 -7 -26 10
-24 19 3 5 17 -1 27 -26 48 -23 18 -31 32 -27 44 8 19 5 20 -11 4z"/>
<path d="M2715 1510 c3 -5 8 -10 11 -10 2 0 4 5 4 10 0 6 -5 10 -11 10 -5 0
-7 -4 -4 -10z"/>
<path d="M2765 1510 c-3 -5 -1 -10 5 -10 8 0 11 -18 8 -55 -2 -44 0 -55 12
-55 12 0 14 12 12 65 -3 46 -8 65 -17 65 -8 0 -17 -4 -20 -10z"/>
<path d="M2959 1445 c19 -57 27 -71 34 -60 6 11 3 28 -7 50 -9 18 -16 45 -16
59 0 19 -5 26 -18 26 -18 0 -17 -5 7 -75z"/>
<path d="M3026 1505 c4 -8 10 -12 15 -9 14 8 10 24 -6 24 -9 0 -12 -6 -9 -15z"/>
<path d="M3157 1502 c-22 -25 -21 -75 1 -95 26 -24 36 -21 18 5 -9 12 -16 32
-16 43 0 11 7 31 16 43 18 27 4 29 -19 4z"/>
<path d="M3224 1498 c18 -26 20 -61 6 -89 -7 -12 -7 -19 -1 -19 32 0 41 88 13
113 -26 24 -36 21 -18 -5z"/>
<path d="M3769 1518 c0 -2 -1 -31 -2 -66 -2 -49 1 -62 13 -62 12 0 14 12 12
65 -2 36 -8 65 -13 65 -5 0 -9 -1 -10 -2z"/>
<path d="M3842 1508 c-20 -20 -13 -46 16 -60 18 -9 27 -21 26 -36 -1 -28 13
-29 22 0 5 17 -1 27 -26 48 -23 18 -31 32 -27 44 8 19 5 20 -11 4z"/>
<path d="M3885 1510 c3 -5 8 -10 11 -10 2 0 4 5 4 10 0 6 -5 10 -11 10 -5 0
-7 -4 -4 -10z"/>
<path d="M3940 1505 c-16 -20 -4 -50 26 -64 19 -8 25 -17 21 -31 -7 -27 10
-25 19 2 5 17 -1 27 -26 48 -23 18 -31 32 -27 44 8 20 3 21 -13 1z"/>
<path d="M3985 1510 c3 -5 8 -10 11 -10 2 0 4 5 4 10 0 6 -5 10 -11 10 -5 0
-7 -4 -4 -10z"/>
<path d="M4050 1500 c-25 -25 -26 -72 -2 -93 23 -21 39 -22 22 -2 -6 8 -12 30
-12 50 0 20 6 42 12 50 18 22 3 18 -20 -5z"/>
<path d="M4113 1502 c19 -21 22 -64 7 -93 -12 -21 2 -26 18 -6 23 27 24 62 2
90 -12 15 -26 27 -32 27 -6 0 -4 -8 5 -18z"/>
<path d="M4190 1459 c6 -61 20 -82 49 -71 13 5 13 6 0 10 -22 8 -29 24 -29 75
0 31 -4 47 -13 47 -10 0 -11 -15 -7 -61z"/>
<path d="M4260 1505 c8 -10 11 -33 8 -65 -4 -41 -2 -50 11 -50 13 0 15 11 13
65 -3 58 -6 65 -24 65 -17 0 -18 -2 -8 -15z"/>
<path d="M4339 1516 c0 -1 -1 -29 -2 -64 -2 -49 1 -62 13 -62 11 0 15 12 15
52 0 48 2 53 22 53 39 1 30 20 -9 21 -21 1 -38 1 -39 0z"/>
<path d="M4449 1518 c0 -2 -1 -31 -2 -66 -2 -49 1 -62 13 -62 12 0 14 12 12
65 -2 36 -8 65 -13 65 -5 0 -9 -1 -10 -2z"/>
<path d="M2022 1460 c0 -14 2 -19 5 -12 2 6 2 18 0 25 -3 6 -5 1 -5 -13z"/>
<path d="M3497 1410 c-3 -12 0 -20 8 -20 8 0 11 8 8 20 -3 11 -7 20 -8 20 -1
0 -5 -9 -8 -20z"/>
<path d="M2660 1400 c0 -6 7 -13 15 -17 24 -9 27 1 5 15 -13 8 -20 8 -20 2z"/>
<path d="M3830 1401 c0 -9 30 -24 36 -18 2 1 -6 8 -16 15 -11 7 -20 8 -20 3z"/>
<path d="M3930 1401 c0 -9 30 -24 36 -18 2 1 -6 8 -16 15 -11 7 -20 8 -20 3z"/>
<path d="M2935 1329 c-4 -6 -4 -13 -1 -16 8 -8 36 5 36 17 0 13 -27 13 -35 -1z"/>
</g>
</svg>
